<svg width="14" height="15" viewBox="0 0 14 15" fill="none" xmlns="http://www.w3.org/2000/svg">
<path fill-rule="evenodd" clip-rule="evenodd" d="M0.572 14.5C0.4256 14.5 0.28 14.444 0.168 14.332C-0.056 14.1112 -0.056 13.748 0.168 13.524L13.0248 0.668C13.2488 0.444 13.6112 0.444 13.8328 0.668C14.0568 0.892 14.0568 1.252 13.8328 1.476L0.9768 14.332C0.8648 14.444 0.7184 14.5 0.572 14.5Z" fill="#AC8C5A"/>
<path fill-rule="evenodd" clip-rule="evenodd" d="M13.4288 14.5C13.2824 14.5 13.136 14.444 13.024 14.332L0.168 1.476C-0.056 1.252 -0.056 0.892 0.168 0.668C0.3896 0.444 0.752 0.444 0.976 0.668L13.832 13.524C14.056 13.748 14.056 14.1112 13.832 14.332C13.72 14.444 13.576 14.5 13.4288 14.5Z" fill="#AC8C5A"/>
</svg>
