<svg width="41" height="40" viewBox="0 0 41 40" fill="none" xmlns="http://www.w3.org/2000/svg">
<path fill-rule="evenodd" clip-rule="evenodd" d="M0 20C0 8.95431 8.96725 0 20.0289 0C31.0906 0 40.0578 8.95431 40.0578 20C40.0578 31.0457 31.0906 40 20.0289 40C8.96725 40 0 31.0457 0 20Z" fill="#AC8C5A"/>
<path fill-rule="evenodd" clip-rule="evenodd" d="M30.452 15.9741C30.452 15.9741 30.2434 14.4719 29.604 13.8104C28.7927 12.9417 27.8834 12.9376 27.4667 12.8872C24.4814 12.6665 20.0034 12.6665 20.0034 12.6665H19.994C19.994 12.6665 15.516 12.6665 12.5307 12.8872C12.1134 12.9376 11.2047 12.9417 10.3927 13.8104C9.75336 14.4719 9.54536 15.9741 9.54536 15.9741C9.54536 15.9741 9.33203 17.7386 9.33203 19.5024V21.1565C9.33203 22.921 9.54536 24.6848 9.54536 24.6848C9.54536 24.6848 9.75336 26.187 10.3927 26.8485C11.2047 27.7171 12.2707 27.6899 12.7454 27.7805C14.452 27.9481 19.9987 27.9998 19.9987 27.9998C19.9987 27.9998 24.4814 27.993 27.4667 27.7723C27.8834 27.7212 28.7927 27.7171 29.604 26.8485C30.2434 26.187 30.452 24.6848 30.452 24.6848C30.452 24.6848 30.6654 22.921 30.6654 21.1565V19.5024C30.6654 17.7386 30.452 15.9741 30.452 15.9741Z" fill="white"/>
<path fill-rule="evenodd" clip-rule="evenodd" d="M17.7975 23.1609L17.7969 17.0356L23.5609 20.1089L17.7975 23.1609Z" fill="#AC8C5A"/>
</svg>
